<svg width="44" height="24" viewBox="0 0 44 24" fill="none" xmlns="http://www.w3.org/2000/svg">
<rect x="0.5" y="0.5" width="43" height="23" rx="11.5" stroke="white"/>
<circle cx="32" cy="12" r="10" fill="#FFAA04"/>
<mask id="mask0_11387_7808" style="mask-type:alpha" maskUnits="userSpaceOnUse" x="4" y="4" width="16" height="16">
<rect x="3.99997" y="4" width="16" height="16" fill="#D9D9D9"/>
</mask>
<g mask="url(#mask0_11387_7808)">
<path d="M12 6.66675C11.8111 6.66675 11.6528 6.60275 11.5253 6.47475C11.3973 6.34719 11.3333 6.18897 11.3333 6.00008V5.33341C11.3333 5.14453 11.3973 4.98608 11.5253 4.85808C11.6528 4.73053 11.8111 4.66675 12 4.66675C12.1888 4.66675 12.3473 4.73053 12.4753 4.85808C12.6028 4.98608 12.6666 5.14453 12.6666 5.33341V6.00008C12.6666 6.18897 12.6028 6.34719 12.4753 6.47475C12.3473 6.60275 12.1888 6.66675 12 6.66675ZM12 19.3334C11.8111 19.3334 11.6528 19.2694 11.5253 19.1414C11.3973 19.0139 11.3333 18.8556 11.3333 18.6667V18.0001C11.3333 17.8112 11.3973 17.653 11.5253 17.5254C11.6528 17.3974 11.8111 17.3334 12 17.3334C12.1888 17.3334 12.3473 17.3974 12.4753 17.5254C12.6028 17.653 12.6666 17.8112 12.6666 18.0001V18.6667C12.6666 18.8556 12.6028 19.0139 12.4753 19.1414C12.3473 19.2694 12.1888 19.3334 12 19.3334ZM18 12.6667C17.8111 12.6667 17.6528 12.6027 17.5253 12.4747C17.3973 12.3472 17.3333 12.189 17.3333 12.0001C17.3333 11.8112 17.3973 11.6527 17.5253 11.5247C17.6528 11.3972 17.8111 11.3334 18 11.3334H18.6666C18.8555 11.3334 19.0137 11.3972 19.1413 11.5247C19.2693 11.6527 19.3333 11.8112 19.3333 12.0001C19.3333 12.189 19.2693 12.3472 19.1413 12.4747C19.0137 12.6027 18.8555 12.6667 18.6666 12.6667H18ZM5.33329 12.6667C5.1444 12.6667 4.98618 12.6027 4.85863 12.4747C4.73063 12.3472 4.66663 12.189 4.66663 12.0001C4.66663 11.8112 4.73063 11.6527 4.85863 11.5247C4.98618 11.3972 5.1444 11.3334 5.33329 11.3334H5.99996C6.18885 11.3334 6.34729 11.3972 6.47529 11.5247C6.60285 11.6527 6.66663 11.8112 6.66663 12.0001C6.66663 12.189 6.60285 12.3472 6.47529 12.4747C6.34729 12.6027 6.18885 12.6667 5.99996 12.6667H5.33329ZM16 8.00008C15.8777 7.87786 15.8166 7.72497 15.8166 7.54141C15.8166 7.3583 15.8777 7.20008 16 7.06675L16.2333 6.81675C16.3555 6.68341 16.5111 6.61675 16.7 6.61675C16.8888 6.61675 17.05 6.68341 17.1833 6.81675C17.3166 6.95008 17.3833 7.11119 17.3833 7.30008C17.3833 7.48897 17.3166 7.65008 17.1833 7.78341L16.9333 8.01675C16.8 8.13897 16.6444 8.20008 16.4666 8.20008C16.2888 8.20008 16.1333 8.13341 16 8.00008ZM6.81663 17.1834C6.68329 17.0501 6.61663 16.889 6.61663 16.7001C6.61663 16.5112 6.68329 16.3501 6.81663 16.2167L7.06663 15.9834C7.19996 15.8612 7.35552 15.8001 7.53329 15.8001C7.71107 15.8001 7.86663 15.8667 7.99996 16.0001C8.12218 16.1223 8.18618 16.2779 8.19196 16.4667C8.19729 16.6556 8.13329 16.8112 7.99996 16.9334L7.76663 17.1834C7.6444 17.3167 7.48885 17.3834 7.29996 17.3834C7.11107 17.3834 6.94996 17.3167 6.81663 17.1834ZM16.2166 17.1834L15.9833 16.9334C15.8611 16.8001 15.8 16.6445 15.8 16.4667C15.8 16.289 15.8666 16.1334 16 16.0001C16.1222 15.8779 16.2777 15.8139 16.4666 15.8081C16.6555 15.8027 16.8111 15.8667 16.9333 16.0001L17.1833 16.2334C17.3166 16.3556 17.3833 16.5112 17.3833 16.7001C17.3833 16.889 17.3166 17.0501 17.1833 17.1834C17.05 17.3167 16.8888 17.3834 16.7 17.3834C16.5111 17.3834 16.35 17.3167 16.2166 17.1834ZM7.06663 8.00008L6.81663 7.76675C6.68329 7.64453 6.61663 7.48897 6.61663 7.30008C6.61663 7.11119 6.68329 6.95008 6.81663 6.81675C6.94996 6.68341 7.11107 6.61675 7.29996 6.61675C7.48885 6.61675 7.64996 6.68341 7.78329 6.81675L8.01663 7.06675C8.13885 7.20008 8.19996 7.35564 8.19996 7.53341C8.19996 7.71119 8.13329 7.86675 7.99996 8.00008C7.87774 8.1223 7.72485 8.18341 7.54129 8.18341C7.35818 8.18341 7.19996 8.1223 7.06663 8.00008ZM12 16.0001C10.8888 16.0001 9.9444 15.6112 9.16663 14.8334C8.38885 14.0556 7.99996 13.1112 7.99996 12.0001C7.99996 10.889 8.38885 9.94453 9.16663 9.16675C9.9444 8.38897 10.8888 8.00008 12 8.00008C13.1111 8.00008 14.0555 8.38897 14.8333 9.16675C15.6111 9.94453 16 10.889 16 12.0001C16 13.1112 15.6111 14.0556 14.8333 14.8334C14.0555 15.6112 13.1111 16.0001 12 16.0001Z" fill="white"/>
</g>
<mask id="mask1_11387_7808" style="mask-type:alpha" maskUnits="userSpaceOnUse" x="24" y="3" width="17" height="17">
<rect x="24.4445" y="3.6001" width="16" height="16" fill="#D9D9D9"/>
</mask>
<g mask="url(#mask1_11387_7808)">
<path d="M32.4445 17.6001C30.7667 17.6001 29.3471 17.0194 28.1858 15.8581C27.0249 14.6972 26.4445 13.2779 26.4445 11.6001C26.4445 10.0668 26.9445 8.73611 27.9445 7.60811C28.9445 6.48056 30.2222 5.82234 31.7778 5.63345C32.0556 5.60011 32.2722 5.70011 32.4278 5.93345C32.5833 6.16678 32.5778 6.41123 32.4111 6.66678C32.2222 6.95567 32.0805 7.26123 31.9858 7.58345C31.8916 7.90567 31.8445 8.24456 31.8445 8.60011C31.8445 9.60011 32.1945 10.4501 32.8945 11.1501C33.5945 11.8501 34.4445 12.2001 35.4445 12.2001C35.7889 12.2001 36.1307 12.1501 36.4698 12.0501C36.8085 11.9501 37.1111 11.8112 37.3778 11.6334C37.6111 11.4779 37.85 11.4694 38.0945 11.6081C38.3389 11.7472 38.4445 11.9668 38.4111 12.2668C38.2556 13.8001 37.6029 15.0723 36.4531 16.0834C35.3029 17.0946 33.9667 17.6001 32.4445 17.6001Z" fill="white"/>
</g>
</svg>
