<svg width="44" height="24" viewBox="0 0 44 24" fill="none" xmlns="http://www.w3.org/2000/svg">
<rect x="0.5" y="0.5" width="43" height="23" rx="11.5" stroke="white"/>
<circle cx="12" cy="12" r="10" fill="#FFAA04"/>
<mask id="mask0_11853_2508" style="mask-type:alpha" maskUnits="userSpaceOnUse" x="4" y="4" width="16" height="16">
<rect x="4" y="4" width="16" height="16" fill="#D9D9D9"/>
</mask>
<g mask="url(#mask0_11853_2508)">
<path d="M11.9993 6.6665C11.8105 6.6665 11.6522 6.6025 11.5247 6.4745C11.3967 6.34695 11.3327 6.18873 11.3327 5.99984V5.33317C11.3327 5.14428 11.3967 4.98584 11.5247 4.85784C11.6522 4.73028 11.8105 4.6665 11.9993 4.6665C12.1882 4.6665 12.3467 4.73028 12.4747 4.85784C12.6022 4.98584 12.666 5.14428 12.666 5.33317V5.99984C12.666 6.18873 12.6022 6.34695 12.4747 6.4745C12.3467 6.6025 12.1882 6.6665 11.9993 6.6665ZM11.9993 19.3332C11.8105 19.3332 11.6522 19.2692 11.5247 19.1412C11.3967 19.0136 11.3327 18.8554 11.3327 18.6665V17.9998C11.3327 17.8109 11.3967 17.6527 11.5247 17.5252C11.6522 17.3972 11.8105 17.3332 11.9993 17.3332C12.1882 17.3332 12.3467 17.3972 12.4747 17.5252C12.6022 17.6527 12.666 17.8109 12.666 17.9998V18.6665C12.666 18.8554 12.6022 19.0136 12.4747 19.1412C12.3467 19.2692 12.1882 19.3332 11.9993 19.3332ZM17.9993 12.6665C17.8105 12.6665 17.6522 12.6025 17.5247 12.4745C17.3967 12.3469 17.3327 12.1887 17.3327 11.9998C17.3327 11.8109 17.3967 11.6525 17.5247 11.5245C17.6522 11.3969 17.8105 11.3332 17.9993 11.3332H18.666C18.8549 11.3332 19.0131 11.3969 19.1407 11.5245C19.2687 11.6525 19.3327 11.8109 19.3327 11.9998C19.3327 12.1887 19.2687 12.3469 19.1407 12.4745C19.0131 12.6025 18.8549 12.6665 18.666 12.6665H17.9993ZM5.33268 12.6665C5.14379 12.6665 4.98557 12.6025 4.85802 12.4745C4.73002 12.3469 4.66602 12.1887 4.66602 11.9998C4.66602 11.8109 4.73002 11.6525 4.85802 11.5245C4.98557 11.3969 5.14379 11.3332 5.33268 11.3332H5.99935C6.18824 11.3332 6.34668 11.3969 6.47468 11.5245C6.60224 11.6525 6.66602 11.8109 6.66602 11.9998C6.66602 12.1887 6.60224 12.3469 6.47468 12.4745C6.34668 12.6025 6.18824 12.6665 5.99935 12.6665H5.33268ZM15.9993 7.99984C15.8771 7.87762 15.816 7.72473 15.816 7.54117C15.816 7.35806 15.8771 7.19984 15.9993 7.0665L16.2327 6.8165C16.3549 6.68317 16.5105 6.6165 16.6993 6.6165C16.8882 6.6165 17.0493 6.68317 17.1827 6.8165C17.316 6.94984 17.3827 7.11095 17.3827 7.29984C17.3827 7.48873 17.316 7.64984 17.1827 7.78317L16.9327 8.0165C16.7993 8.13873 16.6438 8.19984 16.466 8.19984C16.2882 8.19984 16.1327 8.13317 15.9993 7.99984ZM6.81602 17.1832C6.68268 17.0498 6.61602 16.8887 6.61602 16.6998C6.61602 16.5109 6.68268 16.3498 6.81602 16.2165L7.06602 15.9832C7.19935 15.8609 7.3549 15.7998 7.53268 15.7998C7.71046 15.7998 7.86602 15.8665 7.99935 15.9998C8.12157 16.1221 8.18557 16.2776 8.19135 16.4665C8.19668 16.6554 8.13268 16.8109 7.99935 16.9332L7.76602 17.1832C7.64379 17.3165 7.48824 17.3832 7.29935 17.3832C7.11046 17.3832 6.94935 17.3165 6.81602 17.1832ZM16.216 17.1832L15.9827 16.9332C15.8605 16.7998 15.7993 16.6443 15.7993 16.4665C15.7993 16.2887 15.866 16.1332 15.9993 15.9998C16.1216 15.8776 16.2771 15.8136 16.466 15.8078C16.6549 15.8025 16.8105 15.8665 16.9327 15.9998L17.1827 16.2332C17.316 16.3554 17.3827 16.5109 17.3827 16.6998C17.3827 16.8887 17.316 17.0498 17.1827 17.1832C17.0493 17.3165 16.8882 17.3832 16.6993 17.3832C16.5105 17.3832 16.3493 17.3165 16.216 17.1832ZM7.06602 7.99984L6.81602 7.7665C6.68268 7.64428 6.61602 7.48873 6.61602 7.29984C6.61602 7.11095 6.68268 6.94984 6.81602 6.8165C6.94935 6.68317 7.11046 6.6165 7.29935 6.6165C7.48824 6.6165 7.64935 6.68317 7.78268 6.8165L8.01602 7.0665C8.13824 7.19984 8.19935 7.35539 8.19935 7.53317C8.19935 7.71095 8.13268 7.8665 7.99935 7.99984C7.87713 8.12206 7.72424 8.18317 7.54068 8.18317C7.35757 8.18317 7.19935 8.12206 7.06602 7.99984ZM11.9993 15.9998C10.8882 15.9998 9.94379 15.6109 9.16602 14.8332C8.38824 14.0554 7.99935 13.1109 7.99935 11.9998C7.99935 10.8887 8.38824 9.94428 9.16602 9.1665C9.94379 8.38873 10.8882 7.99984 11.9993 7.99984C13.1105 7.99984 14.0549 8.38873 14.8327 9.1665C15.6105 9.94428 15.9993 10.8887 15.9993 11.9998C15.9993 13.1109 15.6105 14.0554 14.8327 14.8332C14.0549 15.6109 13.1105 15.9998 11.9993 15.9998Z" fill="white"/>
</g>
<mask id="mask1_11853_2508" style="mask-type:alpha" maskUnits="userSpaceOnUse" x="24" y="3" width="17" height="17">
<rect x="24.4453" y="3.6001" width="16" height="16" fill="#D9D9D9"/>
</mask>
<g mask="url(#mask1_11853_2508)">
<path d="M32.4453 17.5999C30.7675 17.5999 29.348 17.0192 28.1866 15.8579C27.0258 14.697 26.4453 13.2776 26.4453 11.5999C26.4453 10.0665 26.9453 8.73587 27.9453 7.60787C28.9453 6.48031 30.2231 5.82209 31.7786 5.6332C32.0564 5.59987 32.2731 5.69987 32.4286 5.9332C32.5842 6.16654 32.5786 6.41098 32.412 6.66654C32.2231 6.95543 32.0813 7.26098 31.9866 7.5832C31.8924 7.90543 31.8453 8.24431 31.8453 8.59987C31.8453 9.59987 32.1953 10.4499 32.8953 11.1499C33.5953 11.8499 34.4453 12.1999 35.4453 12.1999C35.7898 12.1999 36.1315 12.1499 36.4706 12.0499C36.8093 11.9499 37.112 11.811 37.3786 11.6332C37.612 11.4776 37.8509 11.4692 38.0953 11.6079C38.3398 11.747 38.4453 11.9665 38.412 12.2665C38.2564 13.7999 37.6038 15.0721 36.454 16.0832C35.3038 17.0943 33.9675 17.5999 32.4453 17.5999Z" fill="white"/>
</g>
</svg>
